<svg width="17" height="17" viewBox="0 0 96 96" fill="#2e384d" xmlns="http://www.w3.org/2000/svg">
<path d="M42.9676 65.2567C47.7589 65.2567 52.2489 63.8103 55.9855 61.3393L69.1841 74.5681C70.058 75.4119 71.173 75.8337 72.3783 75.8337C74.8794 75.8337 76.7176 73.875 76.7176 71.4041C76.7176 70.259 76.3259 69.144 75.4821 68.3003L62.3739 55.1317C65.0859 51.2746 66.683 46.6038 66.683 41.5413C66.683 28.4933 56.0156 17.8259 42.9676 17.8259C29.9497 17.8259 19.2522 28.4933 19.2522 41.5413C19.2522 54.5893 29.9196 65.2567 42.9676 65.2567ZM42.9676 58.9286C33.4151 58.9286 25.5803 51.0938 25.5803 41.5413C25.5803 31.9889 33.4151 24.1541 42.9676 24.1541C52.5201 24.1541 60.3549 31.9889 60.3549 41.5413C60.3549 51.0938 52.5201 58.9286 42.9676 58.9286Z" fill="#2e384d"/>
</svg>
